nRows=61
nColumns=19
inDegrees=yes
endheader
time	ground_force_vx	ground_force_vy	ground_force_vz	ground_force_px	ground_force_py	ground_force_pz	1_ground_force_vx	1_ground_force_vy	1_ground_force_vz	1_ground_force_px	1_ground_force_py	1_ground_force_pz	ground_torque_x	ground_torque_y	ground_torque_z	1_ground_torque_x	1_ground_torque_y	1_ground_torque_z
23.854	-0.180337	0.180337	0.072135	0.300000012	0	0.609999999	-0.018034	-0.036067	-0.036067	0.300000012	0	0.2050000005	-0.327697	0.043281	0.327697	-0	0.019476	0
23.855	-0.180337	0.162303	0.108202	0.300000012	0	0.609999999	-0.018034	-0.036067	-0.054101	0.300000012	0	0.2050000005	1.728984	0.043281	-1.728984	-0	0.023083	0
23.856	-0.216404	0.180337	0.108202	0.300000012	0	0.609999999	-0.018034	0.018034	-0.018034	0.300000012	0	0.2050000005	0.201036	0.040395	-0.201036	-184192688	0.023083	184192688
23.857	-0.180337	0.126236	0.090168	0.300000012	0	0.609999999	-0	0.036068	-0.036067	0.300000012	0	0.2050000005	38.241314	0.039674	-38.241314	-388915.1875	0.017312	388915.1875
23.858	-0.198371	0.126236	0.090168	0.300000012	0	0.609999999	-0.018034	0.018034	-0.018034	0.300000012	0	0.2050000005	21.871197	0.041838	-21.871197	-184192688	0.01587	184192688
23.859	-0.162303	0.144269	0.108202	0.300000012	0	0.609999999	-0.018034	-0.054101	-0.036067	0.300000012	0	0.2050000005	0.868363	0.045445	-0.868363	-0	0.007935	0
23.86	-0.162303	0.14427	0.108202	0.300000012	0	0.609999999	-0	0	-0.054101	0.300000012	0	0.2050000005	1.138561	0.045445	-1.138561	0	0.006492	-0
23.861	-0.216404	0.126236	0.126236	0.300000012	0	0.609999999	-0	0.036067	-0.036067	0.300000012	0	0.2050000005	5.164383	0.044002	-5.164383	-515801.09375	0.017312	515801.09375
23.862	-0.180337	0.14427	0.162303	0.300000012	0	0.609999999	-0	-0.018034	-0.072135	0.300000012	0	0.2050000005	9.839594	0.046888	-9.839594	-0	0.010099	0
23.863	-0.180337	0.054101	0.108202	0.300000012	0	0.609999999	-0	0.054101	-0.090169	0.300000012	0	0.2050000005	40333.9375	0.047609	-40333.9375	-61098.0625	0.013706	61098.0625
23.864	-0.216404	0.126235	0.108202	0.300000012	0	0.609999999	-0	-0.054101	-0.072135	0.300000012	0	0.2050000005	12.360645	0.043281	-12.360645	-0	0.021641	0
23.865	-0.234438	0.126235	0.054101	0.300000012	0	0.609999999	-0	-0.054101	-0.072135	0.300000012	0	0.2050000005	25.498447	0.041838	-25.498447	-0	0.014427	0
23.866	-0.216404	0.090168	0.072135	0.300000012	0	0.609999999	0.018034	0	-0.036067	0.300000012	0	0.2050000005	100.560814	0.047609	-100.560814	0	0.016591	-0
23.867	-0.198371	0.108202	0.108202	0.300000012	0	0.609999999	-0.018034	-0.036067	-0.036067	0.300000012	0	0.2050000005	21.140701	0.045445	-21.140701	-0	0.016591	0
23.868	-0.198371	0.108202	0.054101	0.300000012	0	0.609999999	-0.018034	-0.090168	-0.054101	0.300000012	0	0.2050000005	7.071316	0.049052	-7.071316	-0	0.01587	0
23.869	-0.180337	0.108202	0.072135	0.300000012	0	0.609999999	-0.036067	-0.036067	-0.036067	0.300000012	0	0.2050000005	40.960846	0.047609	-40.960846	-0	0.010099	0
23.87	-0.234438	0.126236	0.054101	0.300000012	0	0.609999999	-0.036067	0.036068	-0.054101	0.300000012	0	0.2050000005	25.497169	0.041838	-25.497169	-287710.34375	0.01082	287710.34375
23.871	-0.216404	0.072134	0.054101	0.300000012	0	0.609999999	-0	-0.018034	-0.054101	0.300000012	0	0.2050000005	272.844727	0.051216	-272.844727	-0	0.01082	0
23.872	-0.19837	0.126236	0.090168	0.300000012	0	0.609999999	-0	-0.018034	-0.072135	0.300000012	0	0.2050000005	1.269392	0.05338	-1.269392	-0	0.007214	0
23.873	-0.180337	0.144269	0.072135	0.300000012	0	0.609999999	-0.018034	-0.036067	-0.054101	0.300000012	0	0.2050000005	0.094024	0.040396	-0.094024	-0	0.01587	0
23.874	-0.180337	0.126236	0.036067	0.300000012	0	0.609999999	-0.036067	-0.036067	-0.018034	0.300000012	0	0.2050000005	1.822102	0.036067	-1.822102	-0	0.01082	0
23.875	-0.216404	0.162303	0.054101	0.300000012	0	0.609999999	-0.018034	-0.090168	-0.054101	0.300000012	0	0.2050000005	-0.408827	0.044002	0.408827	-0	0.01587	0
23.876	-0.198371	0.180337	0.054101	0.300000012	0	0.609999999	-0.018034	-0.054101	-0.054101	0.300000012	0	0.2050000005	-0.360467	0.043281	0.360467	-0	0.01587	0
23.877	-0.180337	0.180337	0.054101	0.300000012	0	0.609999999	-0.072135	-0.072135	-0.036067	0.300000012	0	0.2050000005	-0.481887	0.044002	0.481887	-0	0.007214	0
23.878	-0.216404	0.108202	0.072135	0.300000012	0	0.609999999	-0.054101	-0.162303	-0.036067	0.300000012	0	0.2050000005	1.429101	0.047609	-1.429101	-0	0.005049	0
23.879	-0.198371	0.054101	0.036067	0.300000012	0	0.609999999	-0.072135	-0.108202	-0.054101	0.300000012	0	0.2050000005	1928.974121	0.031018	-1928.974121	-0	0.015148	0
23.88	-0.198371	0.072135	0.018034	0.300000012	0	0.609999999	-0.054101	-0.036067	-0.054101	0.300000012	0	0.2050000005	287.043091	0.034625	-287.043091	-0	0.008656	0
23.881	-0.19837	0.108202	0.072135	0.300000012	0	0.609999999	-0.018034	-0.036067	-0.072135	0.300000012	0	0.2050000005	1.474466	0.049773	-1.474466	-0	0.005049	0
23.882	-0.216404	0.126236	0.072135	0.300000012	0	0.609999999	-0.036067	0	-0.090168	0.300000012	0	0.2050000005	0.293608	0.051937	-0.293608	0	0.006492	-0
23.883	-0.234438	0.090168	0.090168	0.300000012	0	0.609999999	-0.018034	-0.018034	-0.072135	0.300000012	0	0.2050000005	38.827671	0.046166	-38.827671	-0	0.007935	0
23.884	-0.252472	0.126236	0.090168	0.300000012	0	0.609999999	-0.054101	-0.108202	-0.072135	0.300000012	0	0.2050000005	1.505986	0.044002	-1.505986	-0	-0.002164	0
23.885	-0.234438	0.054101	0.054101	0.300000012	0	0.609999999	-0.036067	0	-0.072135	0.300000012	0	0.2050000005	17965.402344	0.046166	-17965.402344	0	-0.004328	-0
23.886	-0.252472	0.036067	0.054101	0.300000012	0	0.609999999	-0.090168	0.054101	-0.054101	0.300000012	0	0.2050000005	126504.101562	0.044002	-126504.101562	-16179.862305	0.001443	16179.862305
23.887	-0.252472	0.090168	0.072135	0.300000012	0	0.609999999	-0.072135	-0.036067	-0.054101	0.300000012	0	0.2050000005	399.731689	0.040396	-399.731689	-0	0.003607	0
23.888	-0.234438	0.054101	0.054101	0.300000012	0	0.609999999	-0.054101	-0.036067	-0.072135	0.300000012	0	0.2050000005	5587.557129	0.041838	-5587.557129	-0	0.012263	0
23.889	-0.270506	0.162303	0.072135	0.300000012	0	0.609999999	-0.090168	-0.072135	-0.072135	0.300000012	0	0.2050000005	0.858564	0.038231	-0.858564	-0	0.012263	0
23.89	-0.234438	0.162303	0.072135	0.300000012	0	0.609999999	-0.072135	-0.036067	-0.072135	0.300000012	0	0.2050000005	3.794436	0.045445	-3.794436	-0	0.002885	0
23.891	-0.19837	0.108202	0.054101	0.300000012	0	0.609999999	-0.072135	-0.036067	-0.072135	0.300000012	0	0.2050000005	104.62262	0.03751	-104.62262	-0	0.002885	0
23.892	-0.216404	0.126236	0.090168	0.300000012	0	0.609999999	-0.054101	-0.072135	-0.072135	0.300000012	0	0.2050000005	47.218037	0.039674	-47.218037	-0	0.005049	0
23.893	-0.198371	0.108202	0.054101	0.300000012	0	0.609999999	-0.090168	-0.054101	-0.108202	0.300000012	0	0.2050000005	41.908459	0.049052	-41.908459	-0	0.012263	0
23.894	-0.234438	0.054101	0.054101	0.300000012	0	0.609999999	-0.072135	-0.072135	-0.090168	0.300000012	0	0.2050000005	17965.417969	0.041838	-17965.417969	-0	0.006492	0
23.895	-0.234438	0.054101	0.072135	0.300000012	0	0.609999999	-0.072135	-0.018034	-0.090168	0.300000012	0	0.2050000005	16326.169922	0.041117	-16326.169922	-0	0.006492	0
23.896	-0.252472	0.054101	0.054101	0.300000012	0	0.609999999	-0.090168	0.018034	-0.054101	0.300000012	0	0.2050000005	17448.035156	0.042559	-17448.035156	-111562392	0.008656	111562392
23.897	-0.252472	0.090168	0.054101	0.300000012	0	0.609999999	-0.072135	-0.018034	-0.072135	0.300000012	0	0.2050000005	439.276611	0.046888	-439.276611	-0	0.002885	0
23.898	-0.234438	0.126236	0.054101	0.300000012	0	0.609999999	-0.090168	-0.018034	-0.054101	0.300000012	0	0.2050000005	4.1338	0.049052	-4.1338	-0	0.001443	0
23.899	-0.234438	0.072134	0.072135	0.300000012	0	0.609999999	-0.054101	-0.036067	-0.036067	0.300000012	0	0.2050000005	564.583191	0.041117	-564.583191	-0	-0.002164	0
23.9	-0.216404	0.108202	0.072135	0.300000012	0	0.609999999	-0.072135	-0.072135	-0.054101	0.300000012	0	0.2050000005	38.513706	0.043281	-38.513706	-0	0.01082	0
23.901	-0.216404	0.108202	0.054101	0.300000012	0	0.609999999	-0.072135	-0.036067	-0.036067	0.300000012	0	0.2050000005	40.716782	0.046888	-40.716782	-0	0.011542	0
23.902	-0.19837	0.072135	0.090168	0.300000012	0	0.609999999	-0.054101	-0.054101	-0.054101	0.300000012	0	0.2050000005	3652.131592	0.044724	-3652.131592	-0	0.005771	0
23.903	-0.19837	0.018034	0.072135	0.300000012	0	0.609999999	-0.018034	-0.054101	-0.072135	0.300000012	0	0.2050000005	50273784	0.04833	-50273784	-0	0.005049	0
23.904	-0.234438	0.036067	0.054101	0.300000012	0	0.609999999	-0.018034	-0.036067	-0.072135	0.300000012	0	0.2050000005	29402.726562	0.044724	-29402.726562	-0	0.005049	0
23.905	-0.216404	0.144269	0.072135	0.300000012	0	0.609999999	-0.036067	-0.072135	-0.054101	0.300000012	0	0.2050000005	-0.827951	0.050494	0.827951	-0	0.003607	0
23.906	-0.180337	0.090168	0.072135	0.300000012	0	0.609999999	-0.018034	0	-0.036067	0.300000012	0	0.2050000005	446.590332	0.050494	-446.590332	0	0.005049	-0
23.907	-0.234438	0.14427	0.090168	0.300000012	0	0.609999999	-0	0.018034	-0.072135	0.300000012	0	0.2050000005	1.547242	0.049052	-1.547242	-153032160	0.007214	153032160
23.908	-0.252472	0.126236	0.090168	0.300000012	0	0.609999999	-0.018034	-0.036067	-0.072135	0.300000012	0	0.2050000005	3.928855	0.051216	-3.928855	-0	0.005049	0
23.909	-0.234438	0.108202	0.072135	0.300000012	0	0.609999999	-0.036067	0.036067	-0.036067	0.300000012	0	0.2050000005	89.375488	0.04833	-89.375488	-500010.90625	0.010099	500010.90625
23.91	-0.216404	0.126236	0.054101	0.300000012	0	0.609999999	-0.036067	0	-0.036067	0.300000012	0	0.2050000005	14.442053	0.046888	-14.442053	0	0.014427	-0
23.911	-0.234438	0.126236	0.090168	0.300000012	0	0.609999999	-0.036067	-0.054101	-0.072135	0.300000012	0	0.2050000005	26.652849	0.05338	-26.652849	-0	0.014427	0
23.912	-0.234438	0.234438	0.054101	0.300000012	0	0.609999999	-0.018034	-0.090168	-0.090168	0.300000012	0	0.2050000005	-0.117443	0.05338	0.117443	-0	0.012984	0
23.913	-0.234438	0.162303	0.054101	0.300000012	0	0.609999999	-0.018034	-0.090168	-0.054101	0.300000012	0	0.2050000005	-0.534176	0.05338	0.534176	-0	0.024526	0
23.914	-0.252472	0.108202	0.072135	0.300000012	0	0.609999999	-0.036067	0	-0.036067	0.300000012	0	0.2050000005	14.939924	0.043281	-14.939924	0	0.018755	-0
